<svg width="260" height="260" viewBox="0 0 260 260" fill="none" xmlns="http://www.w3.org/2000/svg">
<path d="M13.8439 128.277C11.3999 125.814 11.5051 120.759 13.4548 118.002C15.0109 115.805 18.6083 114.486 20.8601 113.089C29.112 107.988 35.9085 98.595 38.3113 89.1559C41.2176 77.7224 38.6774 66.22 40.8331 54.8693C45.4922 30.3342 67.1953 13.2713 90.9854 9.52598C110.002 8.49201 129.215 9.35595 148.305 9.05265C151.092 9.53977 152.941 12.4717 153.239 15.1232C154.387 25.2884 145.119 34.3598 135.339 35.0905C122.716 36.0325 108.922 34.2679 96.2258 35.0721C81.6808 35.9958 71.0444 46.7261 68.6828 60.779C67.6255 67.0564 68.5455 73.9955 68.2434 80.4016C67.5523 95.0013 61.7856 107.17 50.7693 116.655C48.3756 118.714 45.7074 119.84 43.3412 121.545C42.5585 122.11 41.8308 122.652 42.2656 123.659C42.5997 124.44 47.5106 127.137 48.6685 128.033C58.2614 135.469 65.2914 147.578 67.328 159.572C69.7171 173.634 65.0579 186.097 75.4884 198.344C84.3719 208.775 96.0747 208.895 108.766 208.831C117.837 208.785 127.54 206.51 132.524 216.271C134.881 220.889 136.492 231.491 129.792 233.021C128.314 233.357 125.526 233.458 123.924 233.522C115.7 233.857 105.764 233.894 97.5485 233.522C69.2228 232.24 43.4144 211.859 40.3205 182.715C39.309 173.193 40.705 163.634 37.8628 154.315C35.2952 145.891 29.1028 138.001 21.8715 133.107C19.7159 131.645 15.4641 129.904 13.8439 128.268V128.277ZM173.019 229.455C165.124 231.22 156.429 228.127 149.829 233.959C146.781 236.656 145.28 239.643 145.321 243.784C145.367 248.393 147.563 250.442 152.026 250.732C158.177 251.132 166.717 251.044 172.91 250.732C199.83 249.362 223.552 231.33 226.577 203.408C227.309 196.639 226.38 189.824 228.476 183.266C230.019 178.432 233.863 173.069 237.913 170.031C242.261 166.768 248.934 165.408 247.891 158.469C247.296 154.512 240.531 151.861 237.602 149.398C224.485 138.369 228.398 126.462 225.964 111.692C221.945 87.2856 201.917 71.3256 177.743 70.1446C175.262 70.0251 170.53 69.7539 168.543 71.0682C165.445 73.1224 165.276 77.7133 166.314 80.9485C168.049 86.3389 174.489 86.9317 179.024 88.6964C188.503 92.3773 196.196 100.401 198.654 110.442C200.324 117.262 199.08 124.421 200.041 131.319C201.295 140.285 205.377 149.701 212.494 155.468C213.904 156.613 216.242 157.683 217.455 158.814C218.096 159.411 218.137 160.169 217.606 160.886C217.075 161.603 214 163.331 212.979 164.181C207.51 168.745 202.75 176.506 200.965 183.427C198.947 191.253 200.434 199.323 197.931 207.057C196.132 212.613 193.267 216.831 189.121 220.811C184.493 225.255 179.363 228.04 173.019 229.455ZM89.4338 129.233C97.7956 129.752 112.244 128.649 118.981 134.191C128.414 141.944 127.105 155.942 127.316 167.053C127.357 169.333 127.297 172.026 127.567 174.296C127.952 177.503 131.796 177.935 132.542 175.151C132.657 174.732 132.771 173.703 132.812 173.216C133.961 160.234 129.796 140.68 143.11 132.845C148.708 129.55 159.765 129.458 166.301 129.224C167.962 129.164 172.85 129.559 173.971 128.985C176.338 127.767 175.473 124.109 172.882 123.741C169.253 123.222 164.044 123.861 160.168 123.718C154.85 123.521 147.696 123.066 143.032 120.414C136.291 116.586 133.934 109.771 133.261 102.446C132.492 94.0823 133.151 85.4842 132.588 77.1021C132.446 75.9808 131.188 74.9606 130.094 75.0065C129.348 75.0387 127.906 76.1416 127.773 76.8723C127.664 77.4789 127.577 79.0138 127.54 79.7261C127.005 89.9601 128.959 107.643 122.496 115.897C114.556 126.039 98.7064 122.767 87.6764 123.714C86.0836 123.852 84.5138 124.467 84.285 126.278C84.2072 126.912 84.7564 128.36 85.2232 128.723C86.1889 129.472 88.2485 129.159 89.4384 129.233H89.4338ZM105.269 104.776C104.674 105.833 104.963 106.605 105.498 107.597C106.418 109.307 112.043 114.486 113.883 115.051C117.178 116.062 117.489 112.997 115.901 110.819C115.009 109.592 109.938 104.505 108.734 103.903C108.135 103.604 107.032 103.508 106.395 103.696C106.144 103.769 105.411 104.523 105.269 104.771V104.776ZM105.269 149.278C106.185 150.91 108.221 150.606 109.544 149.637C110.592 148.869 114.899 144.517 115.686 143.456C116.322 142.596 117.206 140.832 116.73 139.77C116.588 139.453 115.828 138.621 115.526 138.529C113.672 137.983 109.622 142.169 108.345 143.47C106.935 144.903 103.997 147.008 105.269 149.274V149.278ZM143.467 142.022C144.122 143.658 148.776 148.322 150.314 149.48C153.568 151.93 156.049 148.957 154.342 146.319C153.637 145.23 149.449 141.209 148.296 140.262C147.55 139.651 145.788 138.332 144.849 138.543C143.133 138.934 142.881 140.551 143.467 142.022ZM154.95 106.361C155.312 104.528 153.495 103.163 151.71 103.779C149.925 104.394 143.742 110.81 143.238 112.694C142.689 114.743 144.36 115.653 146.186 114.987C147.783 114.403 151.477 110.934 152.708 109.518C153.358 108.769 154.767 107.285 154.95 106.361Z" fill="#1B1B1B" fill-opacity="0.5"/>
</svg>
