<svg width="260" height="260" viewBox="0 0 260 260" fill="none" xmlns="http://www.w3.org/2000/svg">
<path d="M13.8439 119.277C11.3999 116.814 11.5051 111.759 13.4548 109.002C15.0109 106.805 18.6083 105.486 20.8601 104.089C29.112 98.9881 35.9085 89.595 38.3113 80.1559C41.2176 68.7224 38.6774 57.22 40.8331 45.8693C45.4922 21.3342 67.1953 4.27127 90.9854 0.525981C110.002 -0.507995 129.215 0.35595 148.305 0.0526504C151.092 0.539768 152.941 3.47166 153.239 6.12323C154.387 16.2884 145.119 25.3598 135.339 26.0905C122.716 27.0325 108.922 25.2679 96.2258 26.0721C81.6808 26.9958 71.0444 37.7261 68.6828 51.779C67.6255 58.0564 68.5455 64.9955 68.2434 71.4016C67.5523 86.0013 61.7856 98.1701 50.7693 107.655C48.3756 109.714 45.7074 110.84 43.3412 112.545C42.5585 113.11 41.8308 113.652 42.2656 114.659C42.5997 115.44 47.5106 118.137 48.6685 119.033C58.2614 126.469 65.2914 138.578 67.328 150.572C69.7171 164.634 65.0579 177.097 75.4884 189.344C84.3719 199.775 96.0747 199.895 108.766 199.831C117.837 199.785 127.54 197.51 132.524 207.271C134.881 211.889 136.492 222.491 129.792 224.021C128.314 224.357 125.526 224.458 123.924 224.522C115.7 224.857 105.764 224.894 97.5485 224.522C69.2228 223.24 43.4144 202.859 40.3205 173.715C39.309 164.193 40.705 154.634 37.8628 145.315C35.2952 136.891 29.1028 129.001 21.8715 124.107C19.7159 122.645 15.4641 120.904 13.8439 119.268V119.277ZM173.019 220.455C165.124 222.22 156.429 219.127 149.829 224.959C146.781 227.656 145.28 230.643 145.321 234.784C145.367 239.393 147.563 241.442 152.026 241.732C158.177 242.132 166.717 242.044 172.91 241.732C199.83 240.362 223.552 222.33 226.577 194.408C227.309 187.639 226.38 180.824 228.476 174.266C230.019 169.432 233.863 164.069 237.913 161.031C242.261 157.768 248.934 156.408 247.891 149.469C247.296 145.512 240.531 142.861 237.602 140.398C224.485 129.369 228.398 117.462 225.964 102.692C221.945 78.2856 201.917 62.3256 177.743 61.1446C175.262 61.0251 170.53 60.7539 168.543 62.0682C165.445 64.1224 165.276 68.7133 166.314 71.9485C168.049 77.3389 174.489 77.9317 179.024 79.6964C188.503 83.3773 196.196 91.401 198.654 101.442C200.324 108.262 199.08 115.421 200.041 122.319C201.295 131.285 205.377 140.701 212.494 146.468C213.904 147.613 216.242 148.683 217.455 149.814C218.096 150.411 218.137 151.169 217.606 151.886C217.075 152.603 214 154.331 212.979 155.181C207.51 159.745 202.75 167.506 200.965 174.427C198.947 182.253 200.434 190.323 197.931 198.057C196.132 203.613 193.267 207.831 189.121 211.811C184.493 216.255 179.363 219.04 173.019 220.455ZM89.4338 120.233C97.7956 120.752 112.244 119.649 118.981 125.191C128.414 132.944 127.105 146.942 127.316 158.053C127.357 160.333 127.297 163.026 127.567 165.296C127.952 168.503 131.796 168.935 132.542 166.151C132.657 165.732 132.771 164.703 132.812 164.216C133.961 151.234 129.796 131.68 143.11 123.845C148.708 120.55 159.765 120.458 166.301 120.224C167.962 120.164 172.85 120.559 173.971 119.985C176.338 118.767 175.473 115.109 172.882 114.741C169.253 114.222 164.044 114.861 160.168 114.718C154.85 114.521 147.696 114.066 143.032 111.414C136.291 107.586 133.934 100.771 133.261 93.446C132.492 85.0823 133.151 76.4842 132.588 68.1021C132.446 66.9808 131.188 65.9606 130.094 66.0065C129.348 66.0387 127.906 67.1416 127.773 67.8723C127.664 68.4789 127.577 70.0138 127.54 70.7261C127.005 80.9601 128.959 98.6434 122.496 106.897C114.556 117.039 98.7064 113.767 87.6764 114.714C86.0836 114.852 84.5138 115.467 84.285 117.278C84.2072 117.912 84.7564 119.36 85.2232 119.723C86.1889 120.472 88.2485 120.159 89.4384 120.233H89.4338ZM105.269 95.7759C104.674 96.8328 104.963 97.6048 105.498 98.5975C106.418 100.307 112.043 105.486 113.883 106.051C117.178 107.062 117.489 103.997 115.901 101.819C115.009 100.592 109.938 95.5047 108.734 94.9027C108.135 94.604 107.032 94.5075 106.395 94.6959C106.144 94.7695 105.411 95.5231 105.269 95.7713V95.7759ZM105.269 140.278C106.185 141.91 108.221 141.606 109.544 140.637C110.592 139.869 114.899 135.517 115.686 134.456C116.322 133.596 117.206 131.832 116.73 130.77C116.588 130.453 115.828 129.621 115.526 129.529C113.672 128.983 109.622 133.169 108.345 134.47C106.935 135.903 103.997 138.008 105.269 140.274V140.278ZM143.467 133.022C144.122 134.658 148.776 139.322 150.314 140.48C153.568 142.93 156.049 139.957 154.342 137.319C153.637 136.23 149.449 132.209 148.296 131.262C147.55 130.651 145.788 129.332 144.849 129.543C143.133 129.934 142.881 131.551 143.467 133.022ZM154.95 97.3613C155.312 95.5277 153.495 94.1629 151.71 94.7786C149.925 95.3944 143.742 101.81 143.238 103.694C142.689 105.743 144.36 106.653 146.186 105.987C147.783 105.403 151.477 101.934 152.708 100.518C153.358 99.7693 154.767 98.285 154.95 97.3613Z" fill="#1B1B1B"/>
</svg>
