<svg width="260" height="260" viewBox="0 0 260 260" fill="none" xmlns="http://www.w3.org/2000/svg">
<path d="M12.8439 128.277C10.3999 125.814 10.5051 120.759 12.4548 118.002C14.0109 115.805 17.6083 114.486 19.8601 113.089C28.112 107.988 34.9085 98.595 37.3113 89.1559C40.2176 77.7224 37.6774 66.22 39.8331 54.8693C44.4922 30.3342 66.1953 13.2713 89.9854 9.52598C109.002 8.49201 128.215 9.35595 147.305 9.05265C150.092 9.53977 151.941 12.4717 152.239 15.1232C153.387 25.2884 144.119 34.3598 134.339 35.0905C121.716 36.0325 107.922 34.2679 95.2258 35.0721C80.6808 35.9958 70.0444 46.7261 67.6828 60.779C66.6255 67.0564 67.5455 73.9955 67.2434 80.4016C66.5523 95.0013 60.7856 107.17 49.7693 116.655C47.3756 118.714 44.7074 119.84 42.3412 121.545C41.5585 122.11 40.8308 122.652 41.2656 123.659C41.5997 124.44 46.5106 127.137 47.6685 128.033C57.2614 135.469 64.2914 147.578 66.328 159.572C68.7171 173.634 64.0579 186.097 74.4884 198.344C83.3719 208.775 95.0747 208.895 107.766 208.831C116.837 208.785 126.54 206.51 131.524 216.271C133.881 220.889 135.492 231.491 128.792 233.021C127.314 233.357 124.526 233.458 122.924 233.522C114.7 233.857 104.764 233.894 96.5485 233.522C68.2228 232.24 42.4144 211.859 39.3205 182.715C38.309 173.193 39.705 163.634 36.8628 154.315C34.2952 145.891 28.1028 138.001 20.8715 133.107C18.7159 131.645 14.4641 129.904 12.8439 128.268V128.277ZM172.019 229.455C164.124 231.22 155.429 228.127 148.829 233.959C145.781 236.656 144.28 239.643 144.321 243.784C144.367 248.393 146.563 250.442 151.026 250.732C157.177 251.132 165.717 251.044 171.91 250.732C198.83 249.362 222.552 231.33 225.577 203.408C226.309 196.639 225.38 189.824 227.476 183.266C229.019 178.432 232.863 173.069 236.913 170.031C241.261 166.768 247.934 165.408 246.891 158.469C246.296 154.512 239.531 151.861 236.602 149.398C223.485 138.369 227.398 126.462 224.964 111.692C220.945 87.2856 200.917 71.3256 176.743 70.1446C174.262 70.0251 169.53 69.7539 167.543 71.0682C164.445 73.1224 164.276 77.7133 165.314 80.9485C167.049 86.3389 173.489 86.9317 178.024 88.6964C187.503 92.3773 195.196 100.401 197.654 110.442C199.324 117.262 198.08 124.421 199.041 131.319C200.295 140.285 204.377 149.701 211.494 155.468C212.904 156.613 215.242 157.683 216.455 158.814C217.096 159.411 217.137 160.169 216.606 160.886C216.075 161.603 213 163.331 211.979 164.181C206.51 168.745 201.75 176.506 199.965 183.427C197.947 191.253 199.434 199.323 196.931 207.057C195.132 212.613 192.267 216.831 188.121 220.811C183.493 225.255 178.363 228.04 172.019 229.455ZM88.4338 129.233C96.7956 129.752 111.244 128.649 117.981 134.191C127.414 141.944 126.105 155.942 126.316 167.053C126.357 169.333 126.297 172.026 126.567 174.296C126.952 177.503 130.796 177.935 131.542 175.151C131.657 174.732 131.771 173.703 131.812 173.216C132.961 160.234 128.796 140.68 142.11 132.845C147.708 129.55 158.765 129.458 165.301 129.224C166.962 129.164 171.85 129.559 172.971 128.985C175.338 127.767 174.473 124.109 171.882 123.741C168.253 123.222 163.044 123.861 159.168 123.718C153.85 123.521 146.696 123.066 142.032 120.414C135.291 116.586 132.934 109.771 132.261 102.446C131.492 94.0823 132.151 85.4842 131.588 77.1021C131.446 75.9808 130.188 74.9606 129.094 75.0065C128.348 75.0387 126.906 76.1416 126.773 76.8723C126.664 77.4789 126.577 79.0138 126.54 79.7261C126.005 89.9601 127.959 107.643 121.496 115.897C113.556 126.039 97.7064 122.767 86.6764 123.714C85.0836 123.852 83.5138 124.467 83.285 126.278C83.2072 126.912 83.7564 128.36 84.2232 128.723C85.1889 129.472 87.2485 129.159 88.4384 129.233H88.4338ZM104.269 104.776C103.674 105.833 103.963 106.605 104.498 107.597C105.418 109.307 111.043 114.486 112.883 115.051C116.178 116.062 116.489 112.997 114.901 110.819C114.009 109.592 108.938 104.505 107.734 103.903C107.135 103.604 106.032 103.508 105.395 103.696C105.144 103.769 104.411 104.523 104.269 104.771V104.776ZM104.269 149.278C105.185 150.91 107.221 150.606 108.544 149.637C109.592 148.869 113.899 144.517 114.686 143.456C115.322 142.596 116.206 140.832 115.73 139.77C115.588 139.453 114.828 138.621 114.526 138.529C112.672 137.983 108.622 142.169 107.345 143.47C105.935 144.903 102.997 147.008 104.269 149.274V149.278ZM142.467 142.022C143.122 143.658 147.776 148.322 149.314 149.48C152.568 151.93 155.049 148.957 153.342 146.319C152.637 145.23 148.449 141.209 147.296 140.262C146.55 139.651 144.788 138.332 143.849 138.543C142.133 138.934 141.881 140.551 142.467 142.022ZM153.95 106.361C154.312 104.528 152.495 103.163 150.71 103.779C148.925 104.394 142.742 110.81 142.238 112.694C141.689 114.743 143.36 115.653 145.186 114.987C146.783 114.403 150.477 110.934 151.708 109.518C152.358 108.769 153.767 107.285 153.95 106.361Z" fill="#1B1B1B" fill-opacity="0.8"/>
</svg>
